<svg width="89" height="89" viewBox="0 0 89 89" fill="none" xmlns="http://www.w3.org/2000/svg">
<path d="M44.5 85.6625C21.8028 85.6625 3.33752 67.1973 3.33752 44.5C3.33752 21.8028 21.8028 3.33752 44.5 3.33752C67.1973 3.33752 85.6625 21.8028 85.6625 44.5C85.6625 67.1973 67.1973 85.6625 44.5 85.6625Z" fill="#FF0000"/>
<path d="M44.5 4.44998C66.5831 4.44998 84.55 22.4168 84.55 44.5C84.55 66.5831 66.5831 84.55 44.5 84.55C22.4168 84.55 4.44998 66.5831 4.44998 44.5C4.44998 22.4168 22.4168 4.44998 44.5 4.44998ZM44.5 2.22498C21.0373 2.22498 2.22498 21.0373 2.22498 44.5C2.22498 67.9626 21.0373 86.775 44.5 86.775C67.9626 86.775 86.775 67.9626 86.775 44.5C86.775 21.0373 67.9626 2.22498 44.5 2.22498Z" fill="#C74343"/>
<path d="M79.121 64.5428L44.5 44.5L64.5428 79.121C70.5792 75.61 75.61 70.5792 79.121 64.5428Z" fill="#F4B5B5"/>
<path d="M79.121 64.5428C75.6122 70.5793 70.5815 75.61 64.545 79.1188L65.6909 81.0969L65.6976 81.0924C67.2173 80.2157 68.6702 79.2412 70.0586 78.1888C70.1609 78.1109 70.2655 78.0375 70.3656 77.9596C71.0465 77.4345 71.714 76.8871 72.3592 76.322C72.4215 76.2686 72.4794 76.2108 72.5417 76.1574C73.8211 75.0248 75.0315 73.8144 76.164 72.535C76.2174 72.475 76.2708 72.4193 76.3242 72.3593C76.8916 71.7118 77.4367 71.0443 77.964 70.3612C78.0397 70.2633 78.1131 70.161 78.1887 70.0609C79.2434 68.668 80.2224 67.2106 81.1013 65.6887L79.121 64.5428Z" fill="#FF0606"/>
<path d="M9.87903 24.4572L44.5 44.5L24.4572 9.87903C18.4208 13.3901 13.3901 18.4208 9.87903 24.4572Z" fill="#F4B5B5"/>
<path d="M9.87903 24.4572C13.3879 18.4208 18.4186 13.39 24.455 9.88122L23.3091 7.9032L23.3024 7.90765C21.7828 8.7843 20.3298 9.75885 18.9414 10.8113C18.8413 10.8869 18.7368 10.9603 18.6366 11.0382C17.9558 11.5655 17.2883 12.1107 16.643 12.6758C16.5807 12.7292 16.5229 12.7871 16.4606 12.8405C15.1812 13.9752 13.9708 15.1834 12.8383 16.465C12.7849 16.5228 12.7293 16.5807 12.6781 16.6408C12.1107 17.2882 11.5656 17.9557 11.0383 18.6388C10.9626 18.7367 10.8892 18.8391 10.8135 18.9392C9.75888 20.332 8.77988 21.7894 7.901 23.3113L9.87903 24.4572Z" fill="#FF0606"/>
<path d="M44.5 61.1875C35.2974 61.1875 27.8125 53.7026 27.8125 44.5C27.8125 35.2974 35.2974 27.8125 44.5 27.8125C53.7026 27.8125 61.1875 35.2974 61.1875 44.5C61.1875 53.7026 53.7026 61.1875 44.5 61.1875Z" fill="#8BB7F0"/>
<path d="M44.5 28.925C53.0885 28.925 60.075 35.9115 60.075 44.5C60.075 53.0885 53.0885 60.075 44.5 60.075C35.9115 60.075 28.925 53.0885 28.925 44.5C28.925 35.9115 35.9115 28.925 44.5 28.925ZM44.5 26.7C34.71 26.7 26.7 34.71 26.7 44.5C26.7 54.29 34.71 62.3 44.5 62.3C54.29 62.3 62.3 54.29 62.3 44.5C62.3 34.71 54.29 26.7 44.5 26.7Z" fill="#4E7AB5"/>
<path d="M44.5 77.875C26.1437 77.875 11.125 62.8562 11.125 44.5C11.125 26.1437 26.1437 11.125 44.5 11.125C62.8562 11.125 77.875 26.1437 77.875 44.5C77.875 62.8562 62.8562 77.875 44.5 77.875Z" fill="white"/>
<path d="M44.5 70.0875C30.1532 70.0875 18.9125 58.849 18.9125 44.5C18.9125 30.151 30.1532 18.9125 44.5 18.9125C58.8468 18.9125 70.0875 30.151 70.0875 44.5C70.0875 58.849 58.8468 70.0875 44.5 70.0875Z" fill="#FF0000"/>
<path d="M44.5 20.025C58.2238 20.025 68.975 30.7762 68.975 44.5C68.975 58.2238 58.2238 68.975 44.5 68.975C30.7762 68.975 20.025 58.2238 20.025 44.5C20.025 30.7762 30.7762 20.025 44.5 20.025ZM44.5 17.8C29.5925 17.8 17.8 29.5925 17.8 44.5C17.8 59.4075 29.5925 71.2 44.5 71.2C59.4075 71.2 71.2 59.4075 71.2 44.5C71.2 29.5925 59.4075 17.8 44.5 17.8Z" fill="#C74343"/>
<path d="M23.2601 32.2046L44.5 44.5L32.2046 23.2601C28.4711 25.3917 25.3917 28.4711 23.2601 32.2046Z" fill="#F4B5B5"/>
<path d="M32.2047 23.2601L31.1011 21.3533C30.1087 21.9229 29.1586 22.5592 28.2553 23.2467C28.2219 23.2712 28.1885 23.2957 28.1574 23.3202C26.3418 24.7152 24.7175 26.3395 23.3247 28.1529C23.3002 28.1862 23.2757 28.2196 23.249 28.253C22.5615 29.1563 21.9274 30.1042 21.3578 31.0965L23.2646 32.2001C25.3917 28.471 28.4711 25.3916 32.2047 23.2601Z" fill="#FF0606"/>
<path d="M44.5 61.1875C35.2974 61.1875 27.8125 53.7026 27.8125 44.5C27.8125 35.2974 35.2974 27.8125 44.5 27.8125C53.7026 27.8125 61.1875 35.2974 61.1875 44.5C61.1875 53.7026 53.7026 61.1875 44.5 61.1875Z" fill="#006FFF"/>
<path d="M44.5 28.925C53.0885 28.925 60.075 35.9115 60.075 44.5C60.075 53.0885 53.0885 60.075 44.5 60.075C35.9115 60.075 28.925 53.0885 28.925 44.5C28.925 35.9115 35.9115 28.925 44.5 28.925ZM44.5 26.7C34.71 26.7 26.7 34.71 26.7 44.5C26.7 54.29 34.71 62.3 44.5 62.3C54.29 62.3 62.3 54.29 62.3 44.5C62.3 34.71 54.29 26.7 44.5 26.7Z" fill="#194D94"/>
<path d="M31.0365 36.7058L44.5 44.5L36.7058 31.0365C34.3584 32.4004 32.4004 34.3584 31.0365 36.7058Z" fill="#9FCDFF"/>
<path d="M36.7058 31.0365L35.5978 29.123C34.937 29.508 34.3028 29.9374 33.6999 30.4002C33.6865 30.4091 33.6754 30.418 33.662 30.4291C32.4516 31.3636 31.3636 32.4516 30.4291 33.662C30.4202 33.6754 30.4113 33.6865 30.4002 33.6999C29.9374 34.3028 29.508 34.937 29.123 35.5978L31.0365 36.7058C32.4005 34.3585 34.3585 32.4005 36.7058 31.0365Z" fill="#7CA3CE"/>
<path d="M65.7398 56.7953L44.5 44.5L56.7953 65.7398C60.5289 63.6083 63.6083 60.5289 65.7398 56.7953Z" fill="#F4B5B5"/>
<path d="M56.7953 65.7399L57.8989 67.6467C58.8913 67.0771 59.8414 66.4407 60.7447 65.7532C60.7781 65.7287 60.8115 65.7043 60.8426 65.6798C62.6582 64.2847 64.2825 62.6605 65.6753 60.8471C65.6998 60.8137 65.7243 60.7803 65.751 60.747C66.4385 59.8436 67.0726 58.8958 67.6422 57.9034L65.7354 56.7998C63.6083 60.5289 60.5289 63.6083 56.7953 65.7399Z" fill="#FF0606"/>
<path d="M57.9635 52.2942L44.5 44.5L52.2942 57.9635C54.6416 56.5996 56.5996 54.6416 57.9635 52.2942Z" fill="#9FCDFF"/>
<path d="M52.2942 57.9635L53.4022 59.877C54.0631 59.4921 54.6972 59.0626 55.3002 58.5998C55.3135 58.5909 55.3246 58.582 55.338 58.5709C56.5484 57.6364 57.6364 56.5484 58.5709 55.338C58.5798 55.3246 58.5887 55.3135 58.5998 55.3002C59.0626 54.6972 59.4921 54.0631 59.877 53.4022L57.9635 52.2942C56.5996 54.6416 54.6416 56.5996 52.2942 57.9635Z" fill="#7CA3CE"/>
<path d="M36.7169 55.8319L39.7318 46.2533L31.9265 40.0456H41.6809L44.52 31.3569L47.5349 40.0456H57.4673L49.662 46.2533L52.5011 55.6539L44.52 49.978L36.7169 55.8319Z" fill="white"/>
</svg>
